<?xml version="1.0" encoding="UTF-8"?><svg id="a" xmlns="http://www.w3.org/2000/svg" viewBox="0 0 80 80"><path d="M68.75,56c0-2.61914-2.13086-4.75-4.75-4.75s-4.75,2.13086-4.75,4.75,2.13086,4.75,4.75,4.75,4.75-2.13086,4.75-4.75Zm-8,0c0-1.79199,1.45801-3.25,3.25-3.25s3.25,1.45801,3.25,3.25-1.45801,3.25-3.25,3.25-3.25-1.45801-3.25-3.25Z"/><path d="M57.25,67.38525v4.61475h1.5v-4.61475c0-1.45312,1.14258-2.63525,2.54736-2.63525h5.40527c1.40479,0,2.54736,1.18213,2.54736,2.63525v4.61475h1.5v-4.61475c0-2.28027-1.81543-4.13525-4.04736-4.13525h-5.40527c-2.23193,0-4.04736,1.85498-4.04736,4.13525Z"/><path d="M48,60.75c2.61914,0,4.75-2.13086,4.75-4.75s-2.13086-4.75-4.75-4.75-4.75,2.13086-4.75,4.75,2.13086,4.75,4.75,4.75Zm0-8c1.79199,0,3.25,1.45801,3.25,3.25s-1.45801,3.25-3.25,3.25-3.25-1.45801-3.25-3.25,1.45801-3.25,3.25-3.25Z"/><path d="M41.25,67.38525v4.61475h1.5v-4.61475c0-1.45312,1.14258-2.63525,2.54736-2.63525h5.40527c1.40479,0,2.54736,1.18213,2.54736,2.63525v4.61475h1.5v-4.61475c0-2.28027-1.81543-4.13525-4.04736-4.13525h-5.40527c-2.23193,0-4.04736,1.85498-4.04736,4.13525Z"/><path d="M36.75,56c0-2.61914-2.13086-4.75-4.75-4.75s-4.75,2.13086-4.75,4.75,2.13086,4.75,4.75,4.75,4.75-2.13086,4.75-4.75Zm-8,0c0-1.79199,1.45801-3.25,3.25-3.25s3.25,1.45801,3.25,3.25-1.45801,3.25-3.25,3.25-3.25-1.45801-3.25-3.25Z"/><path d="M25.25,67.38525v4.61475h1.5v-4.61475c0-1.45312,1.14258-2.63525,2.54736-2.63525h5.40527c1.40479,0,2.54736,1.18213,2.54736,2.63525v4.61475h1.5v-4.61475c0-2.28027-1.81543-4.13525-4.04736-4.13525h-5.40527c-2.23193,0-4.04736,1.85498-4.04736,4.13525Z"/><path d="M11.25,56c0,2.61914,2.13086,4.75,4.75,4.75s4.75-2.13086,4.75-4.75-2.13086-4.75-4.75-4.75-4.75,2.13086-4.75,4.75Zm8,0c0,1.79199-1.45801,3.25-3.25,3.25s-3.25-1.45801-3.25-3.25,1.45801-3.25,3.25-3.25,3.25,1.45801,3.25,3.25Z"/><path d="M10.75,67.38525c0-1.45312,1.14258-2.63525,2.54736-2.63525h5.40527c1.40479,0,2.54736,1.18213,2.54736,2.63525v4.61475h1.5v-4.61475c0-2.28027-1.81543-4.13525-4.04736-4.13525h-5.40527c-2.23193,0-4.04736,1.85498-4.04736,4.13525v4.61475h1.5v-4.61475Z"/><path d="M56.75,25c0-3.17041-2.57959-5.75-5.75-5.75s-5.75,2.57959-5.75,5.75,2.57959,5.75,5.75,5.75,5.75-2.57959,5.75-5.75Zm-10,0c0-2.34326,1.90674-4.25,4.25-4.25s4.25,1.90674,4.25,4.25-1.90674,4.25-4.25,4.25-4.25-1.90674-4.25-4.25Z"/><path d="M43.25049,37.62793v8.37305h1.5v-8.37305c0-1.58643,1.38916-2.87695,3.09717-2.87695h6.30615c1.70801,0,3.09717,1.29053,3.09717,2.87695v8.37305h1.5v-8.37305c0-2.41357-2.0625-4.37695-4.59717-4.37695h-6.30615c-2.53467,0-4.59717,1.96338-4.59717,4.37695Z"/><path d="M12.5,40.75h27.5v-1.5H12.5c-.96484,0-1.75-.78516-1.75-1.75V12.5c0-.96484,.78516-1.75,1.75-1.75h55c.96484,0,1.75,.78516,1.75,1.75v25c0,.96484-.78516,1.75-1.75,1.75h-5.5v1.5h5.5c1.79199,0,3.25-1.45801,3.25-3.25V12.5c0-1.79199-1.45801-3.25-3.25-3.25H12.5c-1.79199,0-3.25,1.45801-3.25,3.25v25c0,1.79199,1.45801,3.25,3.25,3.25Z"/><rect x="26" y="15.25" width="14" height="1.5"/><path d="M22.75,16c0-.41406-.33594-.75-.75-.75h-6c-.41406,0-.75,.33594-.75,.75v6c0,.41406,.33594,.75,.75,.75h6c.41406,0,.75-.33594,.75-.75v-6Zm-1.5,5.25h-4.5v-4.5h4.5v4.5Z"/><rect x="26" y="19.25" width="10.5" height="1.5"/><rect x="26" y="27.25" width="14" height="1.5"/><path d="M22,27.25h-6c-.41406,0-.75,.33594-.75,.75v6c0,.41406,.33594,.75,.75,.75h6c.41406,0,.75-.33594,.75-.75v-6c0-.41406-.33594-.75-.75-.75Zm-.75,6h-4.5v-4.5h4.5v4.5Z"/><rect x="26" y="31.25" width="10.5" height="1.5"/></svg>