<?xml version="1.0" encoding="UTF-8"?><svg id="a" xmlns="http://www.w3.org/2000/svg" viewBox="0 0 80 80"><path d="M61.05908,23.69067l1.61963,1.61987,1.06055-1.06055-4.29883-4.2998-1.06055,1.06055,1.61914,1.61938-1.78711,1.78662c-4.40137-4.09668-9.85547-6.43506-15.46094-7.00952v-2.65723h1.24902c1.5166,0,2.75-1.2334,2.75-2.75s-1.2334-2.75-2.75-2.75h-8c-1.5166,0-2.75,1.2334-2.75,2.75s1.2334,2.75,2.75,2.75h1.25098v2.65674c-5.69971,.58398-11.24219,2.99219-15.68164,7.21753l-1.75684-1.75732,1.61914-1.6189-1.06055-1.06055-4.2998,4.29883,1.06055,1.06055,1.61963-1.61938,1.76025,1.76025c-9.84546,10.47046-9.65918,26.99487,.57324,37.22729,5.21484,5.21484,12.06543,7.82227,18.91504,7.82227s13.7002-2.60742,18.91504-7.82227c10.30371-10.30396,10.4209-26.98755,.36523-37.44556l1.77881-1.77881Zm-25.05908-10.44067c-.68945,0-1.25-.56055-1.25-1.25s.56055-1.25,1.25-1.25h8c.68945,0,1.25,.56055,1.25,1.25s-.56055,1.25-1.25,1.25h-8Zm5.25098,1.5v2.54248c-.83301-.03857-1.66699-.03857-2.5,0v-2.54248h2.5Zm16.60352,47.10449c-9.8457,9.8457-25.86328,9.8457-35.70898,0-9.84473-9.84473-9.84473-25.86426,0-35.70898,4.92285-4.92285,11.38867-7.38379,17.85449-7.38379s12.93164,2.46094,17.85449,7.38379c9.84473,9.84473,9.84473,25.86426,0,35.70898Z"/><path d="M23.91309,27.91309c-8.86914,8.87012-8.86914,23.30371,0,32.17383,4.43555,4.43457,10.26074,6.65234,16.08691,6.65234s11.65137-2.21777,16.08691-6.65234c8.86914-8.87012,8.86914-23.30371,0-32.17383-8.87109-8.86914-23.30273-8.86914-32.17383,0Zm31.11328,31.11328c-8.28711,8.2832-21.76758,8.2832-30.05273,0-8.28418-8.28516-8.28418-21.76758,0-30.05273,4.14258-4.14258,9.58496-6.21289,15.02637-6.21289s10.88379,2.07031,15.02637,6.21289c8.2832,8.28613,8.28418,21.76758,0,30.05273Z"/><path d="M50.92578,34.12622l1.70312-1.70337-1.06055-1.06055-1.70361,1.70361c-2.6167-2.36304-6.06982-3.81592-9.86475-3.81592v1.5c3.38135,0,6.46094,1.28418,8.80469,3.37622l-7.38672,7.38745c-.41113-.24023-.88232-.3877-1.3916-.3877-1.53125,0-2.77637,1.24512-2.77637,2.77637s1.24512,2.77734,2.77637,2.77734,2.77734-1.24609,2.77734-2.77734c0-.47607-.13135-.91772-.34375-1.30981l7.40576-7.40601c2.09717,2.34473,3.38428,5.42798,3.38428,8.81348,0,7.30566-5.94434,13.25-13.25,13.25v1.5c8.13281,0,14.75-6.61719,14.75-14.75,0-3.79907-1.45654-7.2561-3.82422-9.87378Zm-10.89941,11.05347c-.7041,0-1.27637-.57324-1.27637-1.27734s.57227-1.27637,1.27637-1.27637,1.27734,.57227,1.27734,1.27637-.57324,1.27734-1.27734,1.27734Z"/><circle cx="31" cy="28.41162" r="1"/><circle cx="40" cy="26" r="1"/><circle cx="49" cy="28.41162" r="1"/><circle cx="55.58838" cy="35" r="1"/><circle cx="58" cy="44" r="1"/><circle cx="55.58838" cy="53" r="1"/><circle cx="49" cy="59.58838" r="1"/><circle cx="40" cy="62" r="1"/><circle cx="31" cy="59.58838" r="1"/><circle cx="24.41162" cy="53" r="1"/><circle cx="22" cy="44" r="1"/><circle cx="24.41162" cy="35" r="1"/></svg>