<?xml version="1.0" encoding="UTF-8"?><svg id="a" xmlns="http://www.w3.org/2000/svg" viewBox="0 0 80 80"><path d="M44.75,48c0-3.58203,4.15625-6.8916,4.26562-6.98438,4.97168-4.97119,4.97168-13.06006,0-18.03125-2.40723-2.4082-5.60938-3.73438-9.01562-3.73438s-6.6084,1.32617-9.01562,3.73438c-4.97168,4.97119-4.97168,13.06006,.06738,18.09131,.04199,.03271,4.19824,3.33105,4.19824,6.92432,0,.41406,.33594,.75,.75,.75h8c.41406,0,.75-.33594,.75-.75Zm-4-.75v-14.5h3.25v-1.5h-8v1.5h3.25v14.5h-2.54492c-.47559-3.979-4.54004-7.20752-4.66016-7.29492-4.38672-4.38623-4.38672-11.52393,0-15.91016,2.12402-2.125,4.94922-3.29492,7.95508-3.29492s5.83105,1.16992,7.95508,3.29492c4.38672,4.38623,4.38672,11.52393,.06738,15.8501-.18359,.14355-4.25195,3.37598-4.72754,7.35498h-2.54492Z"/><path d="M54.75,72v-7.25h1.25c5.92773,0,10.75-4.82227,10.75-10.75v-7.53662l1.7959-.89795c.65723-.32861,1.14746-.89355,1.37988-1.59033s.17871-1.44238-.14941-2.09961l-2.70605-5.41113c-.20605-.4126-.31836-.87793-.33496-1.38477-.24707-7.27637-3.35742-13.98438-8.75879-18.88867-5.39355-4.89795-12.38867-7.34912-19.69336-6.88721-13.3418,.8335-24.07715,11.51807-24.9707,24.85254-.76953,11.46533,5.82129,22.13184,16.39844,26.54346l.57812-1.38477c-9.98535-4.16406-16.20605-14.23389-15.48047-25.05811,.84375-12.58545,10.97559-22.66943,23.56836-23.45605,6.9043-.43213,13.50098,1.87744,18.5918,6.50049,5.09863,4.62988,8.03418,10.96143,8.2666,17.82861,.02441,.72314,.19043,1.39746,.49316,2.00488l2.70605,5.41162c.14941,.29883,.17383,.6377,.06836,.95459-.10547,.31641-.32812,.57324-.62695,.72266l-2.21094,1.10547c-.25488,.12695-.41504,.38672-.41504,.6709v8c0,5.10059-4.14941,9.25-9.25,9.25h-6v1.5h3.25v7.25h1.5Z"/><rect x="36" y="51.25" width="8" height="1.5"/></svg>